<?xml version="1.0" encoding="UTF-8" standalone="no"?>
<svg xmlns="http://www.w3.org/2000/svg" xmlns:xlink="http://www.w3.org/1999/xlink" viewBox="0 4.124 268.042 125" width="268.042" height="133.247" class="long"><style>*{stroke-width:6;stroke-linecap:round;stroke-linejoin:round;stroke-miterlimit:10}</style><defs><path id="long-text-1" d="M137.444 79.9V66.933h-10.289M137.444 79.9v12.967M116.865 79.9s0 12.967 10.29 12.967M116.865 79.9s0-12.967 10.29-12.967"/><path id="long-text-2" d="M103.697 66.933h5.146m-15.436 13.33s0-13.33 10.29-13.33m-10.29 12.861v13.33"/><path id="long-text-3" d="M79.675 80.472V67.145h-10.29m10.29 13.327v13.33m-20.579-13.33s0 13.33 10.29 13.33m-10.29-13.33s0-13.33 10.29-13.33"/><path id="long-text-4" d="M29.272 106.52c10.29 0 10.29-13.33 10.29-13.33V67.467h10.29-10.29c0-13.295 6.305-25.12 16.09-32.644"/><path id="elefint-1" d="M228.479 93.193h10.287v-13.33m0-12.393v12.393m-56.38-50.644a41.052 41.052 0 0 1 15.225-2.907m0 0c22.73 0 41.158 18.425 41.158 41.158"/><path id="elefint-2" d="M197.611 93.193V67.47l10.289-.001c10.29-.001 10.29 13.328 10.29 13.328v12.396"/><path id="elefint-3" d="M177.031 79.863s0 13.33 10.29 13.33m-10.29-25.723v12.393"/><path id="elefint-i" d="M180.323 57.18a3.293 3.293 0 1 1-6.585 0 3.293 3.293 0 0 1 6.585 0z"/><path id="elefint-4" d="M146.162 106.523c10.29 0 10.29-13.33 10.29-13.33V67.47h10.29-10.29c0-13.295 6.305-25.12 16.089-32.644"/><mask id="long-text-clip"><rect id="bg" x="0" y="0" width="100%" height="100%" fill="#005baa"/><use xlink:href="#long-text-1" fill="none" stroke="#000"/><use xlink:href="#long-text-2" fill="none" stroke="#000"/><use xlink:href="#long-text-3" fill="none" stroke="#000"/><use xlink:href="#long-text-4" fill="none" stroke="#000"/><use xlink:href="#elefint-1" fill="none" stroke="#000"/><use xlink:href="#elefint-2" fill="none" stroke="#000"/><use xlink:href="#elefint-3" fill="none" stroke="#000"/><use xlink:href="#elefint-4" fill="none" stroke="#000"/><use xlink:href="#elefint-i"/></mask><mask id="stamp-text-clip"><rect width="100%" height="100%" fill="#005baa"/><use xlink:href="#elefint-1" fill="none" stroke="#000"/><use xlink:href="#elefint-2" fill="none" stroke="#000"/><use xlink:href="#elefint-3" fill="none" stroke="#000"/><use xlink:href="#elefint-4" fill="none" stroke="#000"/><use xlink:href="#elefint-i"/></mask><clipPath id="circle-background-clip"><use xlink:href="#circle-background"/></clipPath></defs><path d="M250.27 9.55H17.77c-8.611 0-15.594 6.983-15.594 15.595v82.542c0 8.612 6.983 15.595 15.595 15.595H250.27c8.613 0 15.595-6.983 15.595-15.595v-82.54c0-8.614-6.982-15.596-15.595-15.596z" style="fill:transparent"/><g style="fill:none;stroke:#005baa"><use xlink:href="#long-text-1"/><use xlink:href="#long-text-2"/><use xlink:href="#long-text-3"/><use xlink:href="#long-text-4"/></g><g style="fill:none;stroke:#005baa"><use xlink:href="#elefint-1"/><use xlink:href="#elefint-2"/><use xlink:href="#elefint-3"/><use xlink:href="#elefint-4"/><use xlink:href="#elefint-i" style="fill:#005baa;stroke:none"/></g></svg>
